<svg width="139" height="248" viewBox="0 0 139 248" fill="none" xmlns="http://www.w3.org/2000/svg">
<rect x="94.1692" y="198" width="20" height="20" rx="3" fill="#18315B"/>
<rect x="116.169" y="220" width="18" height="18" rx="3" fill="#DBD918"/>
<rect x="63.1692" y="219" width="29" height="29" rx="6" fill="#459A6A"/>
<circle cx="66.1692" cy="64" r="7" fill="#18315B"/>
<path d="M64.1692 43C64.1692 41.8954 65.0646 41 66.1692 41C67.2738 41 68.1692 41.8954 68.1692 43V59H64.1692V43Z" fill="#18315B"/>
<path d="M92.7747 87.6357C93.5602 88.4122 93.5675 89.6785 92.791 90.4641C92.0144 91.2496 90.7481 91.2569 89.9626 90.4803L68.6278 69.3894L71.4399 66.5448L92.7747 87.6357Z" fill="#18315B"/>
<path d="M35.7352 53.557C33.2945 52.6936 30.585 53.9698 30.0326 56.499C28.9085 61.6461 28.8779 66.9905 29.9643 72.1815C31.3719 78.9074 34.6005 85.1174 39.2976 90.1331C43.9947 95.1488 49.9797 98.7774 56.599 100.623C61.7077 102.047 67.0425 102.367 72.2522 101.582C74.8122 101.197 76.2632 98.5766 75.5616 96.0846C74.86 93.5927 72.2681 92.1834 69.6943 92.4619C66.1592 92.8444 62.569 92.5545 59.1166 91.592C54.1521 90.208 49.6633 87.4866 46.1405 83.7248C42.6177 79.963 40.1962 75.3056 39.1405 70.2611C38.4063 66.753 38.3523 63.1516 38.9656 59.6491C39.4121 57.099 38.1758 54.4204 35.7352 53.557Z" fill="#459A6A"/>
<path d="M65.6692 125C99.5683 125 127.169 97.9791 127.169 64.5C127.169 31.0209 99.5683 4 65.6692 4C31.7701 4 4.16919 31.0209 4.16919 64.5C4.16919 97.9791 31.7701 125 65.6692 125Z" stroke="#18315B" stroke-width="8"/>
<path d="M137.668 202.5C135.669 215 122.168 215.499 121.668 215.5C121.169 215.5 122.168 201.5 121.668 197.5C121.169 193.5 119.669 191.5 116.669 191.5H91.1692C85.1692 191.5 85.8447 199 85.8447 206C85.8447 213.001 85.6676 215 80.6684 215H58.1692C52.1692 215 43.8224 205.148 23.6684 175C23.6684 175 17.6681 168 6.669 162C0.851071 158.826 4.85389 147.16 15.6692 146C28.1692 144.659 40.8522 153.659 51.6684 162.5C51.6684 162.5 53.6692 87.5 53.6692 72.5C53.6692 57.5 77.6692 57.5 77.6692 72.4999C77.6692 87.4999 77.6676 147.5 77.6684 149C77.6692 150.5 80.6692 150.5 80.6684 149C80.6676 147.5 80.6684 117.5 80.6684 117.5C80.6684 108 100.168 109 100.168 117.5C100.168 117.5 100.168 137 100.168 138.5C100.169 140 103.169 140 103.168 138.5C103.168 137 103.168 134 103.168 126C103.168 118 118.668 119 118.668 126C118.668 133 118.668 141 118.668 143C118.669 145 122.169 145 122.168 143C122.168 141 122.168 131 122.168 131C122.168 123.5 137.668 124.5 137.668 131C137.668 131 139.668 189.999 137.668 202.5Z" fill="#0CB7BB"/>
<g filter="url(#filter0_d_3_14)">
<path d="M44.2121 104.024C43.3337 106.637 40.3959 107.961 38.0209 106.562C31.9964 103.015 26.7898 97.8736 22.8632 91.5445C17.9761 83.6674 15.2972 74.3136 15.1737 64.6962C15.0501 55.0788 17.4878 45.6412 22.1704 37.6073C25.9332 31.1516 31.0062 25.8414 36.9378 22.098C39.2707 20.6257 42.2502 21.8657 43.1982 24.4563C44.0376 26.7502 42.9598 29.2767 40.9026 30.5938C36.2353 33.5818 32.242 37.7872 29.2702 42.8858C25.524 49.313 23.5739 56.863 23.6728 64.557C23.7716 72.2509 25.9148 79.7339 29.8244 86.0356C32.9172 91.0207 37.0026 95.0848 41.7278 97.9176C43.8363 99.1817 44.9956 101.694 44.2121 104.024Z" fill="#DBD918"/>
<path d="M89.1263 23.976C90.0047 21.3634 92.9424 20.039 95.3175 21.4376C101.342 24.9851 106.549 30.1264 110.475 36.4555C115.362 44.3326 118.041 53.6864 118.165 63.3038C118.288 72.9212 115.851 82.3588 111.168 90.3927C107.405 96.8484 102.332 102.159 96.4005 105.902C94.0677 107.374 91.0882 106.134 90.1402 103.544C89.3008 101.25 90.3786 98.7233 92.4358 97.4062C97.1031 94.4182 101.096 90.2128 104.068 85.1142C107.814 78.687 109.764 71.137 109.666 63.443C109.567 55.7491 107.424 48.2661 103.514 41.9644C100.421 36.9793 96.3358 32.9152 91.6106 30.0824C89.502 28.8183 88.3428 26.3062 89.1263 23.976Z" fill="#459A6A"/>
<path d="M98.1211 73.8507C100.603 74.5885 103.244 73.1757 103.666 70.6216C104.526 65.4239 104.284 60.0849 102.934 54.9561C101.186 48.3107 97.6443 42.2736 92.6974 37.5041C87.7505 32.7345 81.5882 29.4159 74.8834 27.9107C69.7088 26.749 64.3646 26.7019 59.2017 27.751C56.6647 28.2665 55.3492 30.9573 56.1771 33.4102C57.0049 35.8631 59.6652 37.1383 62.2215 36.7289C65.7325 36.1666 69.3328 36.273 72.8299 37.058C77.8585 38.1869 82.4802 40.6759 86.1904 44.253C89.9005 47.8302 92.5564 52.358 93.8681 57.3421C94.7803 60.8082 95.0179 64.4022 94.5841 67.9314C94.2682 70.5009 95.6396 73.113 98.1211 73.8507Z" fill="#DBD918"/>
</g>
<defs>
<filter id="filter0_d_3_14" x="12.1692" y="17.3717" width="111" height="94.2566" filterUnits="userSpaceOnUse" color-interpolation-filters="sRGB">
<feFlood flood-opacity="0" result="BackgroundImageFix"/>
<feColorMatrix in="SourceAlpha" type="matrix" values="0 0 0 0 0 0 0 0 0 0 0 0 0 0 0 0 0 0 127 0" result="hardAlpha"/>
<feOffset dx="1" dy="0.5"/>
<feGaussianBlur stdDeviation="2"/>
<feComposite in2="hardAlpha" operator="out"/>
<feColorMatrix type="matrix" values="0 0 0 0 0 0 0 0 0 0 0 0 0 0 0 0 0 0 0.25 0"/>
<feBlend mode="normal" in2="BackgroundImageFix" result="effect1_dropShadow_3_14"/>
<feBlend mode="normal" in="SourceGraphic" in2="effect1_dropShadow_3_14" result="shape"/>
</filter>
</defs>
</svg>
